<svg width="96" height="82" viewBox="0 0 96 82" fill="none" xmlns="http://www.w3.org/2000/svg">
<path d="M80.7902 46.722V64.8945C80.7902 69.4281 79.1805 73.3046 75.9613 76.5238C72.7421 79.7431 68.8656 81.3527 64.332 81.3527H16.7863C12.2527 81.3527 8.37623 79.7431 5.15699 76.5238C1.93775 73.3046 0.328125 69.4281 0.328125 64.8945V17.3488C0.328125 12.8152 1.93775 8.93874 5.15699 5.71949C8.37623 2.50025 12.2527 0.890625 16.7863 0.890625H64.332C66.7322 0.890625 68.9609 1.36684 71.0181 2.31928C71.5896 2.58597 71.9325 3.02409 72.0468 3.63365C72.1611 4.28131 71.9896 4.83372 71.5325 5.29089L68.7323 8.09106C68.3513 8.47204 67.9132 8.66253 67.4179 8.66253C67.3036 8.66253 67.1322 8.62443 66.9036 8.54823C66.0274 8.31965 65.1702 8.20536 64.332 8.20536H16.7863C14.2718 8.20536 12.1193 9.10065 10.3287 10.8912C8.53815 12.6818 7.64286 14.8343 7.64286 17.3488V64.8945C7.64286 67.409 8.53815 69.5615 10.3287 71.3521C12.1193 73.1427 14.2718 74.0379 16.7863 74.0379H64.332C66.8465 74.0379 68.999 73.1427 70.7896 71.3521C72.5801 69.5615 73.4754 67.409 73.4754 64.8945V50.3794C73.4754 49.8841 73.6469 49.465 73.9898 49.1221L77.6471 45.4648C78.0281 45.0838 78.4662 44.8933 78.9615 44.8933C79.1901 44.8933 79.4187 44.9505 79.6472 45.0647C80.4092 45.3695 80.7902 45.9219 80.7902 46.722ZM93.991 18.7774L47.4739 65.2946C46.5595 66.2089 45.4737 66.6661 44.2165 66.6661C42.9593 66.6661 41.8735 66.2089 40.9592 65.2946L16.3862 40.7216C15.4719 39.8073 15.0147 38.7215 15.0147 37.4643C15.0147 36.2071 15.4719 35.1213 16.3862 34.2069L22.6723 27.9208C23.5867 27.0065 24.6725 26.5493 25.9297 26.5493C27.1869 26.5493 28.2727 27.0065 29.187 27.9208L44.2165 42.9503L81.1902 5.97665C82.1045 5.06231 83.1903 4.60514 84.4475 4.60514C85.7048 4.60514 86.7905 5.06231 87.7049 5.97665L93.991 12.2627C94.9053 13.1771 95.3625 14.2629 95.3625 15.5201C95.3625 16.7773 94.9053 17.8631 93.991 18.7774Z" fill="#A664FF"/>
</svg>
